<svg xmlns="http://www.w3.org/2000/svg" viewBox="0 0 1400 1000" width="1400" height="1000" role="img">
<defs>
  <linearGradient id="bg" x1="0.1" y1="0" x2="0.7" y2="1">
    <stop offset="0%" stop-color="#54663f"/>
    <stop offset="52%" stop-color="#1d241a"/>
    <stop offset="100%" stop-color="#54663f"/>
  </linearGradient>
  <radialGradient id="vig" cx="50%" cy="40%" r="80%">
    <stop offset="42%" stop-color="#000000" stop-opacity="0"/>
    <stop offset="100%" stop-color="#0d1109" stop-opacity="0.42"/>
  </radialGradient>
  <filter id="soft" x="-60%" y="-60%" width="220%" height="220%">
    <feGaussianBlur stdDeviation="16.8"/>
  </filter>
  <filter id="grain"><feTurbulence type="fractalNoise" baseFrequency="0.9" numOctaves="3"/></filter>
</defs>
<rect width="1400" height="1000" fill="url(#bg)"/>
<path d="M 0 0 L 117 0 L 96 1000 L 21 1000 Z" fill="#eef3dd" opacity="0.100"/>
<path d="M 0 0 L 21 1000" stroke="#eef3dd" stroke-width="2.2" opacity="0.22" fill="none"/>
<path d="M 117 0 L 233 0 L 212 1000 L 138 1000 Z" fill="#eef3dd" opacity="0.150"/>
<path d="M 117 0 L 138 1000" stroke="#eef3dd" stroke-width="2.2" opacity="0.22" fill="none"/>
<path d="M 233 0 L 350 0 L 329 1000 L 254 1000 Z" fill="#eef3dd" opacity="0.200"/>
<path d="M 233 0 L 254 1000" stroke="#eef3dd" stroke-width="2.2" opacity="0.22" fill="none"/>
<path d="M 350 0 L 467 0 L 446 1000 L 371 1000 Z" fill="#eef3dd" opacity="0.100"/>
<path d="M 350 0 L 371 1000" stroke="#eef3dd" stroke-width="2.2" opacity="0.22" fill="none"/>
<path d="M 467 0 L 583 0 L 562 1000 L 488 1000 Z" fill="#eef3dd" opacity="0.150"/>
<path d="M 467 0 L 488 1000" stroke="#eef3dd" stroke-width="2.2" opacity="0.22" fill="none"/>
<path d="M 583 0 L 700 0 L 679 1000 L 604 1000 Z" fill="#eef3dd" opacity="0.200"/>
<path d="M 583 0 L 604 1000" stroke="#eef3dd" stroke-width="2.2" opacity="0.22" fill="none"/>
<path d="M 700 0 L 817 0 L 796 1000 L 721 1000 Z" fill="#eef3dd" opacity="0.100"/>
<path d="M 700 0 L 721 1000" stroke="#eef3dd" stroke-width="2.2" opacity="0.22" fill="none"/>
<path d="M 817 0 L 933 0 L 912 1000 L 838 1000 Z" fill="#eef3dd" opacity="0.150"/>
<path d="M 817 0 L 838 1000" stroke="#eef3dd" stroke-width="2.2" opacity="0.22" fill="none"/>
<path d="M 933 0 L 1050 0 L 1029 1000 L 954 1000 Z" fill="#eef3dd" opacity="0.200"/>
<path d="M 933 0 L 954 1000" stroke="#eef3dd" stroke-width="2.2" opacity="0.22" fill="none"/>
<path d="M 1050 0 L 1167 0 L 1146 1000 L 1071 1000 Z" fill="#eef3dd" opacity="0.100"/>
<path d="M 1050 0 L 1071 1000" stroke="#eef3dd" stroke-width="2.2" opacity="0.22" fill="none"/>
<path d="M 1167 0 L 1283 0 L 1262 1000 L 1188 1000 Z" fill="#eef3dd" opacity="0.150"/>
<path d="M 1167 0 L 1188 1000" stroke="#eef3dd" stroke-width="2.2" opacity="0.22" fill="none"/>
<path d="M 1283 0 L 1400 0 L 1379 1000 L 1304 1000 Z" fill="#eef3dd" opacity="0.200"/>
<path d="M 1283 0 L 1304 1000" stroke="#eef3dd" stroke-width="2.2" opacity="0.22" fill="none"/>
<circle cx="0" cy="50" r="5.9" fill="#ffeec4" opacity="0.85"/>
<circle cx="0" cy="50" r="20.0" fill="#ffeec4" opacity="0.16" filter="url(#soft)"/>
<circle cx="54" cy="57" r="5.9" fill="#ffeec4" opacity="0.85"/>
<circle cx="54" cy="57" r="20.0" fill="#ffeec4" opacity="0.16" filter="url(#soft)"/>
<circle cx="108" cy="63" r="5.9" fill="#ffeec4" opacity="0.85"/>
<circle cx="108" cy="63" r="20.0" fill="#ffeec4" opacity="0.16" filter="url(#soft)"/>
<circle cx="162" cy="70" r="5.9" fill="#ffeec4" opacity="0.85"/>
<circle cx="162" cy="70" r="20.0" fill="#ffeec4" opacity="0.16" filter="url(#soft)"/>
<circle cx="215" cy="76" r="5.9" fill="#ffeec4" opacity="0.85"/>
<circle cx="215" cy="76" r="20.0" fill="#ffeec4" opacity="0.16" filter="url(#soft)"/>
<circle cx="269" cy="81" r="5.9" fill="#ffeec4" opacity="0.85"/>
<circle cx="269" cy="81" r="20.0" fill="#ffeec4" opacity="0.16" filter="url(#soft)"/>
<circle cx="323" cy="86" r="5.9" fill="#ffeec4" opacity="0.85"/>
<circle cx="323" cy="86" r="20.0" fill="#ffeec4" opacity="0.16" filter="url(#soft)"/>
<circle cx="377" cy="91" r="5.9" fill="#ffeec4" opacity="0.85"/>
<circle cx="377" cy="91" r="20.0" fill="#ffeec4" opacity="0.16" filter="url(#soft)"/>
<circle cx="431" cy="95" r="5.9" fill="#ffeec4" opacity="0.85"/>
<circle cx="431" cy="95" r="20.0" fill="#ffeec4" opacity="0.16" filter="url(#soft)"/>
<circle cx="485" cy="99" r="5.9" fill="#ffeec4" opacity="0.85"/>
<circle cx="485" cy="99" r="20.0" fill="#ffeec4" opacity="0.16" filter="url(#soft)"/>
<circle cx="538" cy="101" r="5.9" fill="#ffeec4" opacity="0.85"/>
<circle cx="538" cy="101" r="20.0" fill="#ffeec4" opacity="0.16" filter="url(#soft)"/>
<circle cx="592" cy="103" r="5.9" fill="#ffeec4" opacity="0.85"/>
<circle cx="592" cy="103" r="20.0" fill="#ffeec4" opacity="0.16" filter="url(#soft)"/>
<circle cx="646" cy="105" r="5.9" fill="#ffeec4" opacity="0.85"/>
<circle cx="646" cy="105" r="20.0" fill="#ffeec4" opacity="0.16" filter="url(#soft)"/>
<circle cx="700" cy="105" r="5.9" fill="#ffeec4" opacity="0.85"/>
<circle cx="700" cy="105" r="20.0" fill="#ffeec4" opacity="0.16" filter="url(#soft)"/>
<circle cx="754" cy="105" r="5.9" fill="#ffeec4" opacity="0.85"/>
<circle cx="754" cy="105" r="20.0" fill="#ffeec4" opacity="0.16" filter="url(#soft)"/>
<circle cx="808" cy="103" r="5.9" fill="#ffeec4" opacity="0.85"/>
<circle cx="808" cy="103" r="20.0" fill="#ffeec4" opacity="0.16" filter="url(#soft)"/>
<circle cx="862" cy="101" r="5.9" fill="#ffeec4" opacity="0.85"/>
<circle cx="862" cy="101" r="20.0" fill="#ffeec4" opacity="0.16" filter="url(#soft)"/>
<circle cx="915" cy="99" r="5.9" fill="#ffeec4" opacity="0.85"/>
<circle cx="915" cy="99" r="20.0" fill="#ffeec4" opacity="0.16" filter="url(#soft)"/>
<circle cx="969" cy="95" r="5.9" fill="#ffeec4" opacity="0.85"/>
<circle cx="969" cy="95" r="20.0" fill="#ffeec4" opacity="0.16" filter="url(#soft)"/>
<circle cx="1023" cy="91" r="5.9" fill="#ffeec4" opacity="0.85"/>
<circle cx="1023" cy="91" r="20.0" fill="#ffeec4" opacity="0.16" filter="url(#soft)"/>
<circle cx="1077" cy="86" r="5.9" fill="#ffeec4" opacity="0.85"/>
<circle cx="1077" cy="86" r="20.0" fill="#ffeec4" opacity="0.16" filter="url(#soft)"/>
<circle cx="1131" cy="81" r="5.9" fill="#ffeec4" opacity="0.85"/>
<circle cx="1131" cy="81" r="20.0" fill="#ffeec4" opacity="0.16" filter="url(#soft)"/>
<circle cx="1185" cy="76" r="5.9" fill="#ffeec4" opacity="0.85"/>
<circle cx="1185" cy="76" r="20.0" fill="#ffeec4" opacity="0.16" filter="url(#soft)"/>
<circle cx="1238" cy="70" r="5.9" fill="#ffeec4" opacity="0.85"/>
<circle cx="1238" cy="70" r="20.0" fill="#ffeec4" opacity="0.16" filter="url(#soft)"/>
<circle cx="1292" cy="63" r="5.9" fill="#ffeec4" opacity="0.85"/>
<circle cx="1292" cy="63" r="20.0" fill="#ffeec4" opacity="0.16" filter="url(#soft)"/>
<circle cx="1346" cy="57" r="5.9" fill="#ffeec4" opacity="0.85"/>
<circle cx="1346" cy="57" r="20.0" fill="#ffeec4" opacity="0.16" filter="url(#soft)"/>
<circle cx="1400" cy="50" r="5.9" fill="#ffeec4" opacity="0.85"/>
<circle cx="1400" cy="50" r="20.0" fill="#ffeec4" opacity="0.16" filter="url(#soft)"/>
<circle cx="0" cy="120" r="5.9" fill="#ffeec4" opacity="0.85"/>
<circle cx="0" cy="120" r="20.0" fill="#ffeec4" opacity="0.16" filter="url(#soft)"/>
<circle cx="54" cy="127" r="5.9" fill="#ffeec4" opacity="0.85"/>
<circle cx="54" cy="127" r="20.0" fill="#ffeec4" opacity="0.16" filter="url(#soft)"/>
<circle cx="108" cy="133" r="5.9" fill="#ffeec4" opacity="0.85"/>
<circle cx="108" cy="133" r="20.0" fill="#ffeec4" opacity="0.16" filter="url(#soft)"/>
<circle cx="162" cy="140" r="5.9" fill="#ffeec4" opacity="0.85"/>
<circle cx="162" cy="140" r="20.0" fill="#ffeec4" opacity="0.16" filter="url(#soft)"/>
<circle cx="215" cy="146" r="5.9" fill="#ffeec4" opacity="0.85"/>
<circle cx="215" cy="146" r="20.0" fill="#ffeec4" opacity="0.16" filter="url(#soft)"/>
<circle cx="269" cy="151" r="5.9" fill="#ffeec4" opacity="0.85"/>
<circle cx="269" cy="151" r="20.0" fill="#ffeec4" opacity="0.16" filter="url(#soft)"/>
<circle cx="323" cy="156" r="5.9" fill="#ffeec4" opacity="0.85"/>
<circle cx="323" cy="156" r="20.0" fill="#ffeec4" opacity="0.16" filter="url(#soft)"/>
<circle cx="377" cy="161" r="5.9" fill="#ffeec4" opacity="0.85"/>
<circle cx="377" cy="161" r="20.0" fill="#ffeec4" opacity="0.16" filter="url(#soft)"/>
<circle cx="431" cy="165" r="5.9" fill="#ffeec4" opacity="0.85"/>
<circle cx="431" cy="165" r="20.0" fill="#ffeec4" opacity="0.16" filter="url(#soft)"/>
<circle cx="485" cy="169" r="5.9" fill="#ffeec4" opacity="0.85"/>
<circle cx="485" cy="169" r="20.0" fill="#ffeec4" opacity="0.16" filter="url(#soft)"/>
<circle cx="538" cy="171" r="5.9" fill="#ffeec4" opacity="0.85"/>
<circle cx="538" cy="171" r="20.0" fill="#ffeec4" opacity="0.16" filter="url(#soft)"/>
<circle cx="592" cy="173" r="5.9" fill="#ffeec4" opacity="0.85"/>
<circle cx="592" cy="173" r="20.0" fill="#ffeec4" opacity="0.16" filter="url(#soft)"/>
<circle cx="646" cy="175" r="5.9" fill="#ffeec4" opacity="0.85"/>
<circle cx="646" cy="175" r="20.0" fill="#ffeec4" opacity="0.16" filter="url(#soft)"/>
<circle cx="700" cy="175" r="5.9" fill="#ffeec4" opacity="0.85"/>
<circle cx="700" cy="175" r="20.0" fill="#ffeec4" opacity="0.16" filter="url(#soft)"/>
<circle cx="754" cy="175" r="5.9" fill="#ffeec4" opacity="0.85"/>
<circle cx="754" cy="175" r="20.0" fill="#ffeec4" opacity="0.16" filter="url(#soft)"/>
<circle cx="808" cy="173" r="5.9" fill="#ffeec4" opacity="0.85"/>
<circle cx="808" cy="173" r="20.0" fill="#ffeec4" opacity="0.16" filter="url(#soft)"/>
<circle cx="862" cy="171" r="5.9" fill="#ffeec4" opacity="0.85"/>
<circle cx="862" cy="171" r="20.0" fill="#ffeec4" opacity="0.16" filter="url(#soft)"/>
<circle cx="915" cy="169" r="5.9" fill="#ffeec4" opacity="0.85"/>
<circle cx="915" cy="169" r="20.0" fill="#ffeec4" opacity="0.16" filter="url(#soft)"/>
<circle cx="969" cy="165" r="5.9" fill="#ffeec4" opacity="0.85"/>
<circle cx="969" cy="165" r="20.0" fill="#ffeec4" opacity="0.16" filter="url(#soft)"/>
<circle cx="1023" cy="161" r="5.9" fill="#ffeec4" opacity="0.85"/>
<circle cx="1023" cy="161" r="20.0" fill="#ffeec4" opacity="0.16" filter="url(#soft)"/>
<circle cx="1077" cy="156" r="5.9" fill="#ffeec4" opacity="0.85"/>
<circle cx="1077" cy="156" r="20.0" fill="#ffeec4" opacity="0.16" filter="url(#soft)"/>
<circle cx="1131" cy="151" r="5.9" fill="#ffeec4" opacity="0.85"/>
<circle cx="1131" cy="151" r="20.0" fill="#ffeec4" opacity="0.16" filter="url(#soft)"/>
<circle cx="1185" cy="146" r="5.9" fill="#ffeec4" opacity="0.85"/>
<circle cx="1185" cy="146" r="20.0" fill="#ffeec4" opacity="0.16" filter="url(#soft)"/>
<circle cx="1238" cy="140" r="5.9" fill="#ffeec4" opacity="0.85"/>
<circle cx="1238" cy="140" r="20.0" fill="#ffeec4" opacity="0.16" filter="url(#soft)"/>
<circle cx="1292" cy="133" r="5.9" fill="#ffeec4" opacity="0.85"/>
<circle cx="1292" cy="133" r="20.0" fill="#ffeec4" opacity="0.16" filter="url(#soft)"/>
<circle cx="1346" cy="127" r="5.9" fill="#ffeec4" opacity="0.85"/>
<circle cx="1346" cy="127" r="20.0" fill="#ffeec4" opacity="0.16" filter="url(#soft)"/>
<circle cx="1400" cy="120" r="5.9" fill="#ffeec4" opacity="0.85"/>
<circle cx="1400" cy="120" r="20.0" fill="#ffeec4" opacity="0.16" filter="url(#soft)"/>
<circle cx="224" cy="503" r="77" fill="#eef3dd" opacity="0.16"/>
<circle cx="183" cy="526" r="10" fill="#cbe4a8" opacity="0.51"/>
<circle cx="221" cy="495" r="19" fill="#cbe4a8" opacity="0.56"/>
<circle cx="251" cy="525" r="13" fill="#ffeec4" opacity="0.38"/>
<circle cx="216" cy="499" r="17" fill="#ffeec4" opacity="0.44"/>
<circle cx="232" cy="523" r="15" fill="#cbe4a8" opacity="0.38"/>
<circle cx="233" cy="534" r="15" fill="#cbe4a8" opacity="0.64"/>
<circle cx="214" cy="511" r="18" fill="#ffeec4" opacity="0.31"/>
<circle cx="218" cy="456" r="16" fill="#cbe4a8" opacity="0.38"/>
<circle cx="198" cy="511" r="12" fill="#cbe4a8" opacity="0.49"/>
<circle cx="222" cy="518" r="15" fill="#ffeec4" opacity="0.56"/>
<circle cx="262" cy="458" r="19" fill="#cbe4a8" opacity="0.62"/>
<circle cx="219" cy="512" r="15" fill="#eef3dd" opacity="0.64"/>
<circle cx="220" cy="512" r="9" fill="#eef3dd" opacity="0.45"/>
<circle cx="274" cy="493" r="12" fill="#ffeec4" opacity="0.56"/>
<circle cx="462" cy="718" r="82" fill="#eef3dd" opacity="0.16"/>
<circle cx="399" cy="731" r="13" fill="#cbe4a8" opacity="0.52"/>
<circle cx="468" cy="722" r="19" fill="#cbe4a8" opacity="0.68"/>
<circle cx="466" cy="727" r="19" fill="#cbe4a8" opacity="0.49"/>
<circle cx="397" cy="719" r="12" fill="#ffeec4" opacity="0.69"/>
<circle cx="413" cy="720" r="18" fill="#ffeec4" opacity="0.36"/>
<circle cx="453" cy="679" r="19" fill="#cbe4a8" opacity="0.40"/>
<circle cx="470" cy="662" r="12" fill="#cbe4a8" opacity="0.34"/>
<circle cx="430" cy="705" r="20" fill="#cbe4a8" opacity="0.35"/>
<circle cx="465" cy="716" r="15" fill="#cbe4a8" opacity="0.62"/>
<circle cx="529" cy="702" r="16" fill="#eef3dd" opacity="0.48"/>
<circle cx="447" cy="690" r="18" fill="#ffeec4" opacity="0.39"/>
<circle cx="479" cy="751" r="12" fill="#ffeec4" opacity="0.43"/>
<circle cx="432" cy="740" r="12" fill="#cbe4a8" opacity="0.68"/>
<circle cx="444" cy="687" r="10" fill="#eef3dd" opacity="0.35"/>
<circle cx="700" cy="593" r="79" fill="#eef3dd" opacity="0.16"/>
<circle cx="682" cy="605" r="13" fill="#eef3dd" opacity="0.42"/>
<circle cx="638" cy="567" r="11" fill="#cbe4a8" opacity="0.31"/>
<circle cx="647" cy="561" r="11" fill="#cbe4a8" opacity="0.47"/>
<circle cx="695" cy="582" r="9" fill="#ffeec4" opacity="0.45"/>
<circle cx="705" cy="605" r="12" fill="#eef3dd" opacity="0.68"/>
<circle cx="713" cy="601" r="19" fill="#eef3dd" opacity="0.58"/>
<circle cx="727" cy="577" r="16" fill="#eef3dd" opacity="0.37"/>
<circle cx="737" cy="599" r="12" fill="#ffeec4" opacity="0.63"/>
<circle cx="722" cy="592" r="11" fill="#ffeec4" opacity="0.42"/>
<circle cx="739" cy="577" r="13" fill="#cbe4a8" opacity="0.40"/>
<circle cx="731" cy="621" r="17" fill="#cbe4a8" opacity="0.57"/>
<circle cx="700" cy="592" r="19" fill="#ffeec4" opacity="0.68"/>
<circle cx="681" cy="568" r="18" fill="#ffeec4" opacity="0.62"/>
<circle cx="687" cy="601" r="18" fill="#ffeec4" opacity="0.32"/>
<circle cx="938" cy="626" r="130" fill="#eef3dd" opacity="0.16"/>
<circle cx="945" cy="703" r="13" fill="#ffeec4" opacity="0.41"/>
<circle cx="994" cy="657" r="12" fill="#eef3dd" opacity="0.50"/>
<circle cx="956" cy="625" r="9" fill="#ffeec4" opacity="0.62"/>
<circle cx="965" cy="617" r="18" fill="#eef3dd" opacity="0.36"/>
<circle cx="1042" cy="636" r="13" fill="#ffeec4" opacity="0.60"/>
<circle cx="938" cy="625" r="16" fill="#eef3dd" opacity="0.56"/>
<circle cx="950" cy="716" r="14" fill="#ffeec4" opacity="0.32"/>
<circle cx="830" cy="591" r="12" fill="#ffeec4" opacity="0.38"/>
<circle cx="939" cy="631" r="18" fill="#ffeec4" opacity="0.32"/>
<circle cx="931" cy="585" r="13" fill="#eef3dd" opacity="0.61"/>
<circle cx="1003" cy="613" r="12" fill="#cbe4a8" opacity="0.52"/>
<circle cx="951" cy="585" r="10" fill="#eef3dd" opacity="0.42"/>
<circle cx="932" cy="608" r="16" fill="#ffeec4" opacity="0.39"/>
<circle cx="870" cy="699" r="13" fill="#ffeec4" opacity="0.63"/>
<circle cx="1176" cy="632" r="122" fill="#eef3dd" opacity="0.16"/>
<circle cx="1169" cy="634" r="16" fill="#ffeec4" opacity="0.63"/>
<circle cx="1190" cy="629" r="18" fill="#eef3dd" opacity="0.61"/>
<circle cx="1166" cy="698" r="13" fill="#cbe4a8" opacity="0.50"/>
<circle cx="1121" cy="698" r="18" fill="#ffeec4" opacity="0.44"/>
<circle cx="1155" cy="593" r="9" fill="#eef3dd" opacity="0.43"/>
<circle cx="1198" cy="610" r="9" fill="#ffeec4" opacity="0.35"/>
<circle cx="1156" cy="581" r="18" fill="#cbe4a8" opacity="0.52"/>
<circle cx="1098" cy="596" r="11" fill="#eef3dd" opacity="0.42"/>
<circle cx="1135" cy="656" r="12" fill="#eef3dd" opacity="0.69"/>
<circle cx="1175" cy="638" r="15" fill="#cbe4a8" opacity="0.58"/>
<circle cx="1249" cy="696" r="16" fill="#eef3dd" opacity="0.65"/>
<circle cx="1211" cy="662" r="10" fill="#ffeec4" opacity="0.50"/>
<circle cx="1147" cy="586" r="17" fill="#ffeec4" opacity="0.66"/>
<circle cx="1194" cy="606" r="14" fill="#eef3dd" opacity="0.60"/>
<rect x="0" y="820" width="1400" height="180" fill="#eef3dd" opacity="0.10"/><rect x="0" y="820" width="1400" height="2" fill="#eef3dd" opacity="0.3"/><ellipse cx="700" cy="820" rx="476" ry="90" fill="#ffeec4" opacity="0.20" filter="url(#soft)"/>
<circle cx="1040" cy="612" r="25" fill="#ffeec4" opacity="0.32" filter="url(#soft)"/>
<circle cx="1067" cy="694" r="27" fill="#ffeec4" opacity="0.34" filter="url(#soft)"/>
<circle cx="39" cy="923" r="37" fill="#eef3dd" opacity="0.35" filter="url(#soft)"/>
<circle cx="30" cy="264" r="16" fill="#eef3dd" opacity="0.28" filter="url(#soft)"/>
<circle cx="296" cy="528" r="29" fill="#cbe4a8" opacity="0.13" filter="url(#soft)"/>
<circle cx="388" cy="866" r="16" fill="#eef3dd" opacity="0.17" filter="url(#soft)"/>
<circle cx="383" cy="737" r="27" fill="#cbe4a8" opacity="0.16" filter="url(#soft)"/>
<circle cx="1431" cy="896" r="40" fill="#ffeec4" opacity="0.21" filter="url(#soft)"/>
<circle cx="314" cy="902" r="36" fill="#eef3dd" opacity="0.27" filter="url(#soft)"/>
<circle cx="588" cy="995" r="38" fill="#eef3dd" opacity="0.32" filter="url(#soft)"/>
<circle cx="903" cy="431" r="22" fill="#ffeec4" opacity="0.16" filter="url(#soft)"/>
<circle cx="994" cy="737" r="18" fill="#eef3dd" opacity="0.30" filter="url(#soft)"/>
<circle cx="686" cy="508" r="20" fill="#eef3dd" opacity="0.32" filter="url(#soft)"/>
<circle cx="1376" cy="458" r="27" fill="#eef3dd" opacity="0.39" filter="url(#soft)"/>
<circle cx="648" cy="787" r="28" fill="#eef3dd" opacity="0.24" filter="url(#soft)"/>
<circle cx="760" cy="795" r="15" fill="#cbe4a8" opacity="0.21" filter="url(#soft)"/>
<g transform="translate(70,930) rotate(-10) scale(1.400)" stroke="#eef3dd" fill="none" stroke-width="6" stroke-linecap="round" opacity="0.3"><path d="M0 0 C 30 -40 70 -60 120 -62"/><ellipse cx="12" cy="-14" rx="22" ry="9" transform="rotate(-28 12 -14)"/><ellipse cx="32" cy="-22" rx="22" ry="9" transform="rotate(-32 32 -22)"/><ellipse cx="52" cy="-31" rx="22" ry="9" transform="rotate(-36 52 -31)"/><ellipse cx="72" cy="-39" rx="22" ry="9" transform="rotate(-40 72 -39)"/><ellipse cx="92" cy="-48" rx="22" ry="9" transform="rotate(-44 92 -48)"/><ellipse cx="112" cy="-56" rx="22" ry="9" transform="rotate(-48 112 -56)"/></g>
<g transform="translate(1330,120) rotate(172) scale(1.400)" stroke="#cbe4a8" fill="none" stroke-width="6" stroke-linecap="round" opacity="0.26"><path d="M0 0 C 30 -40 70 -60 120 -62"/><ellipse cx="12" cy="-14" rx="22" ry="9" transform="rotate(-28 12 -14)"/><ellipse cx="32" cy="-22" rx="22" ry="9" transform="rotate(-32 32 -22)"/><ellipse cx="52" cy="-31" rx="22" ry="9" transform="rotate(-36 52 -31)"/><ellipse cx="72" cy="-39" rx="22" ry="9" transform="rotate(-40 72 -39)"/><ellipse cx="92" cy="-48" rx="22" ry="9" transform="rotate(-44 92 -48)"/><ellipse cx="112" cy="-56" rx="22" ry="9" transform="rotate(-48 112 -56)"/></g>
<rect width="1400" height="1000" fill="url(#vig)"/>
<rect width="1400" height="1000" filter="url(#grain)" opacity="0.13"/>
</svg>